<svg width="24" height="24" viewBox="0 0 24 24" fill="none" xmlns="http://www.w3.org/2000/svg">
<path fill-rule="evenodd" clip-rule="evenodd" d="M1.06909 11.636C2.80309 7.194 6.88409 4 12.0001 4C17.1161 4 21.1971 7.194 22.9321 11.636C23.0236 11.87 23.0236 12.13 22.9321 12.364C21.1971 16.806 17.1161 20 12.0001 20C6.88409 20 2.80309 16.806 1.06909 12.364C0.977621 12.13 0.977621 11.87 1.06909 11.636ZM12.0001 15C12.7957 15 13.5588 14.6839 14.1214 14.1213C14.684 13.5587 15.0001 12.7956 15.0001 12C15.0001 11.2044 14.684 10.4413 14.1214 9.87868C13.5588 9.31607 12.7957 9 12.0001 9C11.2044 9 10.4414 9.31607 9.87877 9.87868C9.31616 10.4413 9.00009 11.2044 9.00009 12C9.00009 12.7956 9.31616 13.5587 9.87877 14.1213C10.4414 14.6839 11.2044 15 12.0001 15Z" fill="black"/>
</svg>
